<svg width="1440" height="994" viewBox="0 0 1440 994" fill="none" xmlns="http://www.w3.org/2000/svg">
  <path opacity="0.2" fill-rule="evenodd" clip-rule="evenodd" d="M0 0H1440V978.429C664.809 1050.51 727.5 846 0 898V0Z" fill="url(#paint0_linear)" />
  <mask id="mask0" mask-type="alpha" maskUnits="userSpaceOnUse" x="0" y="0" width="1440" height="994">
    <path fill-rule="evenodd" clip-rule="evenodd" d="M0 0H1440V978.429C664.809 1050.51 727.5 846 0 898V0Z" fill="white" />
  </mask>
  <g mask="url(#mask0)">
    <path fill-rule="evenodd" clip-rule="evenodd" d="M0 0H1440V978.429C664.809 1050.51 801 778.878 0 778.878V0Z" fill="url(#paint1_linear)" />
    <mask id="mask1" mask-type="alpha" maskUnits="userSpaceOnUse" x="0" y="0" width="1440" height="991">
      <path fill-rule="evenodd" clip-rule="evenodd" d="M0 0H1440V978.429C664.809 1050.51 801 778.878 0 778.878V0Z" fill="white" />
    </mask>
    <g mask="url(#mask1)">
      <g opacity="0.4">
        <path opacity="0.1" d="M1032.7 266.4V330.1C1032.7 342.471 1042.73 352.5 1055.1 352.5H1181.45" stroke="white" stroke-width="14.7" />
        <path fill-rule="evenodd" clip-rule="evenodd" d="M1188.1 366.15C1195.64 366.15 1201.75 360.039 1201.75 352.5C1201.75 344.961 1195.64 338.85 1188.1 338.85C1180.56 338.85 1174.45 344.961 1174.45 352.5C1174.45 360.039 1180.56 366.15 1188.1 366.15Z" stroke="#A481FF" stroke-width="14.7" />
        <path fill-rule="evenodd" clip-rule="evenodd" d="M1032.7 271.3C1040.24 271.3 1046.35 265.189 1046.35 257.65C1046.35 250.111 1040.24 244 1032.7 244C1025.16 244 1019.05 250.111 1019.05 257.65C1019.05 265.189 1025.16 271.3 1032.7 271.3Z" stroke="#A481FF" stroke-width="14.7" />
      </g>
      <g opacity="0.4">
        <path opacity="0.1" d="M-72.1494 255.4V319.1C-72.1494 331.471 -62.1206 341.5 -49.7494 341.5H76.6012" stroke="white" stroke-width="14.7" />
        <path fill-rule="evenodd" clip-rule="evenodd" d="M83.2506 355.15C90.7893 355.15 96.9006 349.039 96.9006 341.5C96.9006 333.961 90.7893 327.85 83.2506 327.85C75.7119 327.85 69.6006 333.961 69.6006 341.5C69.6006 349.039 75.7119 355.15 83.2506 355.15Z" stroke="#FA9EC5" stroke-width="14.7" />
      </g>
      <g opacity="0.5">
        <path opacity="0.1" d="M1397.4 315.5H1390.05V322.85H1397.4V315.5ZM1397.4 300.8V293.45H1390.05V300.8H1397.4ZM1269.14 452.759H1261.79V460.109H1269.14V452.759ZM1269.14 438.059V430.709H1261.79V438.059H1269.14ZM1412.6 520.95V528.3H1419.95V520.95H1412.6ZM1412.6 445.409H1419.95V438.059H1412.6V445.409ZM1397.9 520.95H1390.55V528.3H1397.9V520.95ZM1397.9 445.409V438.059H1390.55V445.409H1397.9ZM1397.4 322.85H1434.68V308.15H1397.4V322.85ZM1390.05 300.8V315.5H1404.75V300.8H1390.05ZM1434.68 293.45H1397.4V308.15H1434.68V293.45ZM1471.78 330.55C1471.78 310.06 1455.17 293.45 1434.68 293.45V308.15C1447.05 308.15 1457.08 318.179 1457.08 330.55H1471.78ZM1471.78 423.009V330.55H1457.08V423.009H1471.78ZM1434.68 460.109C1455.17 460.109 1471.78 443.499 1471.78 423.009H1457.08C1457.08 435.38 1447.05 445.409 1434.68 445.409V460.109ZM1269.14 460.109H1434.68V445.409H1269.14V460.109ZM1261.79 438.059V452.759H1276.49V438.059H1261.79ZM1434.68 430.709H1269.14V445.409H1434.68V430.709ZM1442.38 423.009C1442.38 427.262 1438.93 430.709 1434.68 430.709V445.409C1447.05 445.409 1457.08 435.38 1457.08 423.009H1442.38ZM1442.38 330.55V423.009H1457.08V330.55H1442.38ZM1434.68 322.85C1438.93 322.85 1442.38 326.297 1442.38 330.55H1457.08C1457.08 318.179 1447.05 308.15 1434.68 308.15V322.85ZM1419.95 520.95V445.409H1405.25V520.95H1419.95ZM1397.9 528.3H1412.6V513.6H1397.9V528.3ZM1390.55 445.409V520.95H1405.25V445.409H1390.55ZM1412.6 438.059H1397.9V452.759H1412.6V438.059Z" fill="white" />
        <path fill-rule="evenodd" clip-rule="evenodd" d="M1388.3 321.8C1395.84 321.8 1401.95 315.689 1401.95 308.15C1401.95 300.611 1395.84 294.5 1388.3 294.5C1380.76 294.5 1374.65 300.611 1374.65 308.15C1374.65 315.689 1380.76 321.8 1388.3 321.8Z" stroke="#A481FF" stroke-width="14.7" />
        <path fill-rule="evenodd" clip-rule="evenodd" d="M1262.3 459.059C1269.84 459.059 1275.95 452.948 1275.95 445.409C1275.95 437.87 1269.84 431.759 1262.3 431.759C1254.76 431.759 1248.65 437.87 1248.65 445.409C1248.65 452.948 1254.76 459.059 1262.3 459.059Z" stroke="#A481FF" stroke-width="14.7" />
        <path fill-rule="evenodd" clip-rule="evenodd" d="M1405.25 543.25C1412.79 543.25 1418.9 537.139 1418.9 529.6C1418.9 522.061 1412.79 515.95 1405.25 515.95C1397.71 515.95 1391.6 522.061 1391.6 529.6C1391.6 537.139 1397.71 543.25 1405.25 543.25Z" stroke="#A481FF" stroke-width="14.7" />
      </g>
      <g opacity="0.4">
        <path opacity="0.1" d="M1007.4 1011.05V1048.33C1007.4 1060.7 1017.43 1070.73 1029.8 1070.73H1122.26C1134.63 1070.73 1144.66 1060.7 1144.66 1048.33V988.632C1144.66 970.959 1158.99 956.632 1176.66 956.632L1333.17 956.632" stroke="white" stroke-width="14.7" />
        <path fill-rule="evenodd" clip-rule="evenodd" d="M1021.05 1001.95C1021.05 1009.49 1014.94 1015.6 1007.4 1015.6C999.861 1015.6 993.75 1009.49 993.75 1001.95C993.75 994.411 999.861 988.3 1007.4 988.3C1014.94 988.3 1021.05 994.411 1021.05 1001.95Z" stroke="#D083E9" stroke-width="14.7" />
        <path fill-rule="evenodd" clip-rule="evenodd" d="M1356.82 956.632C1356.82 964.171 1350.71 970.282 1343.17 970.282C1335.63 970.282 1329.52 964.171 1329.52 956.632C1329.52 949.093 1335.63 942.982 1343.17 942.982C1350.71 942.982 1356.82 949.093 1356.82 956.632Z" stroke="#D083E9" stroke-width="14.7" />
      </g>
      <g opacity="0.7">
        <path opacity="0.1" d="M-96.3496 516.15V478.875C-96.3496 466.504 -86.3208 456.475 -73.9496 456.475H18.5095C30.8807 456.475 40.9095 466.504 40.9095 478.875V644.414" stroke="white" stroke-width="14.7" />
        <path fill-rule="evenodd" clip-rule="evenodd" d="M54.5588 651.25C54.5588 643.711 48.4475 637.6 40.9088 637.6C33.3701 637.6 27.2588 643.711 27.2588 651.25C27.2588 658.789 33.3701 664.9 40.9088 664.9C48.4475 664.9 54.5588 658.789 54.5588 651.25Z" stroke="#FFBED9" stroke-width="14.7" />
      </g>
      <path opacity="0.1" d="M1400.05 678.55H1450.2" stroke="white" stroke-width="14.7" />
      <path fill-rule="evenodd" clip-rule="evenodd" d="M1391.3 692.2C1398.84 692.2 1404.95 686.089 1404.95 678.55C1404.95 671.011 1398.84 664.9 1391.3 664.9C1383.76 664.9 1377.65 671.011 1377.65 678.55C1377.65 686.089 1383.76 692.2 1391.3 692.2Z" stroke="#A481FF" stroke-width="14.7" />
      <path opacity="0.5" fill-rule="evenodd" clip-rule="evenodd" d="M1004 320C1006.76 320 1009 317.761 1009 315C1009 312.239 1006.76 310 1004 310C1001.24 310 999 312.239 999 315C999 317.761 1001.24 320 1004 320Z" fill="white" />
      <path opacity="0.5" fill-rule="evenodd" clip-rule="evenodd" d="M1304 260C1306.76 260 1309 257.761 1309 255C1309 252.239 1306.76 250 1304 250C1301.24 250 1299 252.239 1299 255C1299 257.761 1301.24 260 1304 260Z" fill="white" />
      <path fill-rule="evenodd" clip-rule="evenodd" d="M1029.87 683.403C1032.63 683.403 1034.87 681.164 1034.87 678.403C1034.87 675.642 1032.63 673.403 1029.87 673.403C1027.11 673.403 1024.87 675.642 1024.87 678.403C1024.87 681.164 1027.11 683.403 1029.87 683.403Z" fill="white" />
      <path opacity="0.3" fill-rule="evenodd" clip-rule="evenodd" d="M869.87 753.403C872.632 753.403 874.87 751.164 874.87 748.403C874.87 745.642 872.632 743.403 869.87 743.403C867.109 743.403 864.87 745.642 864.87 748.403C864.87 751.164 867.109 753.403 869.87 753.403Z" fill="white" />
      <path fill-rule="evenodd" clip-rule="evenodd" d="M739.87 833.403C742.632 833.403 744.87 831.164 744.87 828.403C744.87 825.642 742.632 823.403 739.87 823.403C737.109 823.403 734.87 825.642 734.87 828.403C734.87 831.164 737.109 833.403 739.87 833.403Z" fill="white" />
      <path opacity="0.5" fill-rule="evenodd" clip-rule="evenodd" d="M1149.87 893.403C1152.63 893.403 1154.87 891.164 1154.87 888.403C1154.87 885.642 1152.63 883.403 1149.87 883.403C1147.11 883.403 1144.87 885.642 1144.87 888.403C1144.87 891.164 1147.11 893.403 1149.87 893.403Z" fill="white" />
      <path opacity="0.3" fill-rule="evenodd" clip-rule="evenodd" d="M684 450C686.761 450 689 447.761 689 445C689 442.239 686.761 440 684 440C681.239 440 679 442.239 679 445C679 447.761 681.239 450 684 450Z" fill="white" />
      <path opacity="0.3" fill-rule="evenodd" clip-rule="evenodd" d="M504 490C506.761 490 509 487.761 509 485C509 482.239 506.761 480 504 480C501.239 480 499 482.239 499 485C499 487.761 501.239 490 504 490Z" fill="white" />
    </g>
    <g opacity="0.4">
      <path opacity="0.1" d="M906.35 881.6V817.9C906.35 805.529 896.321 795.5 883.95 795.5H757.599" stroke="white" stroke-width="14.7" />
      <path fill-rule="evenodd" clip-rule="evenodd" d="M750.95 781.85C743.411 781.85 737.3 787.961 737.3 795.5C737.3 803.039 743.411 809.15 750.95 809.15C758.488 809.15 764.6 803.039 764.6 795.5C764.6 787.961 758.488 781.85 750.95 781.85Z" stroke="#F189DE" stroke-width="14.7" />
      <path fill-rule="evenodd" clip-rule="evenodd" d="M906.35 876.7C898.811 876.7 892.7 882.811 892.7 890.35C892.7 897.889 898.811 904 906.35 904C913.889 904 920 897.889 920 890.35C920 882.811 913.889 876.7 906.35 876.7Z" stroke="#F189DE" stroke-width="14.7" />
    </g>
  </g>
  <path fill-rule="evenodd" clip-rule="evenodd" d="M779.806 659.903C839.345 659.903 887.612 611.637 887.612 552.098C887.612 492.558 839.345 444.292 779.806 444.292C720.266 444.292 672 492.558 672 552.098C672 611.637 720.266 659.903 779.806 659.903Z" fill="url(#paint2_linear)" />
  <mask id="mask2" mask-type="alpha" maskUnits="userSpaceOnUse" x="672" y="444" width="216" height="216">
    <path fill-rule="evenodd" clip-rule="evenodd" d="M779.806 659.903C839.345 659.903 887.612 611.637 887.612 552.098C887.612 492.558 839.345 444.292 779.806 444.292C720.266 444.292 672 492.558 672 552.098C672 611.637 720.266 659.903 779.806 659.903Z" fill="white" />
  </mask>
  <g mask="url(#mask2)">
    <path opacity="0.1" fill-rule="evenodd" clip-rule="evenodd" d="M830.267 631.263C891.493 631.263 941.125 581.63 941.125 520.405C941.125 459.18 891.493 409.547 830.267 409.547C769.042 409.547 719.409 459.18 719.409 520.405C719.409 581.63 769.042 631.263 830.267 631.263Z" fill="#EAF0F9" />
    <path opacity="0.5" fill-rule="evenodd" clip-rule="evenodd" d="M750.34 615.131C769.655 596.787 807.336 562.998 808.906 585.45C810.476 607.902 836.813 583.498 843.829 583.008C850.846 582.517 857.746 589.606 835.545 619.266C813.344 648.926 804.023 649.693 804.023 649.693L761.759 655.286C761.759 655.286 765.63 638.288 763.35 630.272C761.07 622.257 731.025 633.474 750.34 615.131Z" fill="white" />
    <path opacity="0.2" fill-rule="evenodd" clip-rule="evenodd" d="M650.244 547.407C650.244 547.407 707.417 499.165 703.325 520.809C699.233 542.453 680.162 563.841 708.853 563.841C737.543 563.841 673.215 612.549 673.215 612.549L650.244 547.407Z" fill="white" />
    <path opacity="0.5" fill-rule="evenodd" clip-rule="evenodd" d="M799.352 419.938C799.352 419.938 749.68 458.881 778.184 458.881C806.688 458.881 774.931 501.962 774.931 516.344C774.931 530.727 782.109 541.308 817.725 512.464C853.341 483.62 854.219 502.022 854.219 509.183C854.219 516.344 870.868 510.947 889.389 492.744C907.91 474.541 799.352 419.938 799.352 419.938Z" fill="url(#paint3_linear)" />
  </g>
  <path fill-rule="evenodd" clip-rule="evenodd" d="M923.997 377.888C923.997 377.888 917.096 395.673 935.489 412.502C953.883 429.331 1034.96 449.367 1086.77 422.927C1138.58 396.486 923.997 377.888 923.997 377.888Z" fill="url(#paint4_linear)" />
  <mask id="mask3" mask-type="alpha" maskUnits="userSpaceOnUse" x="922" y="377" width="173" height="59">
    <path fill-rule="evenodd" clip-rule="evenodd" d="M923.997 377.888C923.997 377.888 917.096 395.673 935.489 412.502C953.883 429.331 1034.96 449.367 1086.77 422.927C1138.58 396.486 923.997 377.888 923.997 377.888Z" fill="white" />
  </mask>
  <g mask="url(#mask3)">
    <path opacity="0.1" fill-rule="evenodd" clip-rule="evenodd" d="M1037.05 407.323L1049.43 405.803C1049.43 405.803 1047.97 417.891 1048.69 423.758C1049.41 429.624 1055.3 440.811 1055.3 440.811L1042.92 442.33C1042.92 442.33 1037.86 431.042 1037.14 425.176C1036.42 419.31 1037.05 407.323 1037.05 407.323Z" fill="white" />
    <path opacity="0.1" fill-rule="evenodd" clip-rule="evenodd" d="M1011.08 407.323L1023.45 405.803C1023.45 405.803 1022.73 419.31 1023.45 425.176C1024.17 431.042 1029.32 440.811 1029.32 440.811L1016.4 442.888C1016.4 442.888 1011.88 431.042 1011.16 425.176C1010.44 419.31 1011.08 407.323 1011.08 407.323Z" fill="white" />
    <path opacity="0.1" fill-rule="evenodd" clip-rule="evenodd" d="M985.1 407.323L997.476 405.803C997.476 405.803 996.019 417.891 996.739 423.758C997.46 429.624 1003.34 440.811 1003.34 440.811L990.969 442.33C990.969 442.33 985.906 431.042 985.185 425.176C984.465 419.31 985.1 407.323 985.1 407.323Z" fill="white" />
    <path opacity="0.1" fill-rule="evenodd" clip-rule="evenodd" d="M956.274 408.992L968.198 405.346C968.198 405.346 969.834 418.773 971.562 424.425C973.29 430.077 980.057 438.803 980.057 438.803L967.687 443.093C967.687 443.093 961.186 432.211 959.458 426.559C957.73 420.907 956.274 408.992 956.274 408.992Z" fill="white" />
    <path opacity="0.1" fill-rule="evenodd" clip-rule="evenodd" d="M930.293 396.151L942.337 392.924C942.337 392.924 943.504 406.4 945.034 412.109C946.563 417.818 953.021 426.774 953.021 426.774L940.509 430.631C940.509 430.631 934.392 419.528 932.863 413.819C931.333 408.11 930.293 396.151 930.293 396.151Z" fill="white" />
  </g>
  <path fill-rule="evenodd" clip-rule="evenodd" d="M918.509 426.289L950.75 410.383C950.75 410.383 957.746 409.426 962.017 410.383C966.288 411.34 973.785 415.542 973.785 415.542C973.785 415.542 952.017 424.173 957.433 446.594L918.509 426.289Z" fill="url(#paint5_linear)" />
  <path fill-rule="evenodd" clip-rule="evenodd" d="M905.543 423.158C919.074 423.867 941.789 425.966 969.844 447.888C997.899 469.81 918.482 456.885 900.911 444.275C883.341 431.666 892.011 422.449 905.543 423.158Z" fill="url(#paint6_linear)" />
  <path fill-rule="evenodd" clip-rule="evenodd" d="M869.935 424.436C869.935 424.436 797.146 380.66 777.208 325.341C777.208 325.341 812.509 388.342 885.121 417.406C897.653 422.422 888.348 435.232 869.935 424.436Z" fill="url(#paint7_linear)" />
  <path fill-rule="evenodd" clip-rule="evenodd" d="M1026.24 299.591C1026.24 299.591 953.454 255.815 933.517 200.496C933.517 200.496 968.818 263.497 1041.43 292.561C1053.96 297.577 1044.66 310.387 1026.24 299.591Z" fill="url(#paint8_linear)" />
  <path fill-rule="evenodd" clip-rule="evenodd" d="M1069.2 296.908C1082.73 297.617 1105.45 299.716 1133.5 321.638C1161.56 343.56 1082.14 330.635 1064.57 318.025C1047 305.416 1055.67 296.199 1069.2 296.908Z" fill="url(#paint9_linear)" />
  <path fill-rule="evenodd" clip-rule="evenodd" d="M1109.99 324.718C1109.99 324.718 1090.26 328.131 1084.53 331.207C1078.81 334.282 1076.74 342.584 1076.74 342.584C1076.74 342.584 1069.74 343.541 1065.47 342.584C1061.2 341.627 1053.7 337.425 1053.7 337.425L1067.75 310.867C1067.75 310.867 1082.25 312.673 1088.64 314.768C1096.33 317.29 1109.99 324.718 1109.99 324.718Z" fill="url(#paint10_linear)" />
  <path fill-rule="evenodd" clip-rule="evenodd" d="M873.423 377.888C876.017 375.253 888.291 377.594 900.893 376.261C959.309 370.082 1017.28 352.649 1017.28 300.536C1017.28 295.631 1014.59 290.483 1014.03 286.684C1013.46 282.885 1025.39 289.646 1029.16 291.732C1110.56 336.8 1137.64 375.496 1111.73 407.049C1085.82 438.604 1011.55 435.326 887.812 388.337C882.092 386.165 870.829 380.523 873.423 377.888Z" fill="url(#paint11_linear)" />
  <mask id="mask4" mask-type="alpha" maskUnits="userSpaceOnUse" x="873" y="285" width="249" height="143">
    <path fill-rule="evenodd" clip-rule="evenodd" d="M873.423 377.888C876.017 375.253 888.291 377.594 900.893 376.261C959.309 370.082 1017.28 352.649 1017.28 300.536C1017.28 295.631 1014.59 290.483 1014.03 286.684C1013.46 282.885 1025.39 289.646 1029.16 291.732C1110.56 336.8 1137.64 375.496 1111.73 407.049C1085.82 438.604 1011.55 435.326 887.812 388.337C882.092 386.165 870.829 380.523 873.423 377.888Z" fill="white" />
  </mask>
  <g mask="url(#mask4)">
    <path fill-rule="evenodd" clip-rule="evenodd" d="M1107.82 365.455C1110.19 392.361 1100.9 402.894 1072.87 415.25C1044.84 427.605 1088.88 431.695 1088.88 431.695C1088.88 431.695 1127.59 398.518 1127.59 388.315C1127.59 378.111 1105.44 338.548 1107.82 365.455Z" fill="url(#paint12_linear)" />
    <path opacity="0.2" fill-rule="evenodd" clip-rule="evenodd" d="M918.103 371.209C918.103 371.209 980.141 385.897 974.448 380.401C968.755 374.905 936.698 364.38 936.698 364.38L918.103 371.209Z" fill="#2C0B4D" />
    <path opacity="0.2" fill-rule="evenodd" clip-rule="evenodd" d="M983.566 323.41C983.566 323.41 1045.6 338.099 1039.91 332.603C1034.22 327.107 1002.16 316.582 1002.16 316.582L983.566 323.41Z" fill="#2C0B4D" />
  </g>
  <path fill-rule="evenodd" clip-rule="evenodd" d="M1031.05 404.385C1057.01 404.385 1078.07 394.383 1078.07 382.044C1078.07 369.706 1057.01 359.704 1031.05 359.704C1005.08 359.704 984.027 369.706 984.027 382.044C984.027 394.383 1005.08 404.385 1031.05 404.385Z" fill="#260A45" />
  <mask id="mask5" mask-type="alpha" maskUnits="userSpaceOnUse" x="984" y="359" width="95" height="46">
    <path fill-rule="evenodd" clip-rule="evenodd" d="M1031.05 404.385C1057.01 404.385 1078.07 394.383 1078.07 382.044C1078.07 369.706 1057.01 359.704 1031.05 359.704C1005.08 359.704 984.027 369.706 984.027 382.044C984.027 394.383 1005.08 404.385 1031.05 404.385Z" fill="white" />
  </mask>
  <g mask="url(#mask5)">
    <path fill-rule="evenodd" clip-rule="evenodd" d="M1015.4 404.89C1015.4 404.89 1037.94 381.677 1092.59 377.899L1063.19 415.25L1015.4 404.89Z" fill="url(#paint13_linear)" />
  </g>
  <path d="M1040.2 357.309L1044.83 365.921C1046.07 368.218 1046.91 370.704 1047.34 373.277L1049.23 384.78" stroke="url(#paint14_linear)" stroke-width="8.928" stroke-linecap="round" stroke-linejoin="round" />
  <rect x="1047.74" y="386.54" width="10.0703" height="9.33791" rx="4.66896" fill="#4832A6" />
  <path fill-rule="evenodd" clip-rule="evenodd" d="M1049.75 365.379C1047.42 363.512 1042.48 367.225 1041.96 373.336C1041.96 373.336 1045.97 391.717 1047.4 392.321C1048.82 392.926 1057.75 389.976 1059.32 386.265C1060.9 382.555 1052.08 367.246 1049.75 365.379Z" fill="url(#paint15_linear)" />
  <mask id="mask6" mask-type="alpha" maskUnits="userSpaceOnUse" x="1041" y="364" width="19" height="29">
    <path fill-rule="evenodd" clip-rule="evenodd" d="M1049.75 365.379C1047.42 363.512 1042.48 367.225 1041.96 373.336C1041.96 373.336 1045.97 391.717 1047.4 392.321C1048.82 392.926 1057.75 389.976 1059.32 386.265C1060.9 382.555 1052.08 367.246 1049.75 365.379Z" fill="white" />
  </mask>
  <g mask="url(#mask6)">
    <path opacity="0.1" fill-rule="evenodd" clip-rule="evenodd" d="M1041.43 364.423C1041.43 364.423 1044.26 382.366 1058.38 391.371L1042.57 396.166L1034.76 373.383L1041.43 364.423Z" fill="#273199" />
  </g>
  <path fill-rule="evenodd" clip-rule="evenodd" d="M990.045 360.738C993.05 355.369 1037.68 348.301 1041.68 352.56C1045.68 356.82 1043.08 383.975 1038.31 388.515C1033.54 393.054 1006.51 398.184 1000.3 393.678C994.097 389.172 987.041 366.107 990.045 360.738Z" fill="url(#paint16_linear)" />
  <mask id="mask7" mask-type="alpha" maskUnits="userSpaceOnUse" x="989" y="351" width="55" height="45">
    <path fill-rule="evenodd" clip-rule="evenodd" d="M990.045 360.738C993.05 355.369 1037.68 348.301 1041.68 352.56C1045.68 356.82 1043.08 383.975 1038.31 388.515C1033.54 393.054 1006.51 398.184 1000.3 393.678C994.097 389.172 987.041 366.107 990.045 360.738Z" fill="white" />
  </mask>
  <g mask="url(#mask7)">
    <path opacity="0.3" d="M1045.82 365.845L1038.35 368.644C1035.9 369.559 1034.6 372.233 1035.4 374.721L1040.12 389.473" stroke="#CDEEFF" stroke-width="0.864" />
    <path opacity="0.5" fill-rule="evenodd" clip-rule="evenodd" d="M1038.4 373.128C1038.97 373.037 1039.36 372.499 1039.27 371.926C1039.18 371.353 1038.64 370.962 1038.07 371.053C1037.49 371.144 1037.1 371.682 1037.19 372.255C1037.28 372.828 1037.82 373.219 1038.4 373.128Z" fill="#BBE9FF" />
    <path opacity="0.3" d="M1032.9 352.248L1033.45 355.755C1034.03 359.412 1031.74 362.912 1028.16 363.848L1008.94 368.865C1005.07 369.875 1002.77 373.85 1003.81 377.712L1008.53 395.143" stroke="#CDEEFF" stroke-width="0.864" />
    <path opacity="0.1" fill-rule="evenodd" clip-rule="evenodd" d="M999.113 356.665C999.113 356.665 1022.01 366.463 1036.43 358.871C1050.85 351.28 1045.97 342.652 1045.97 342.652L1032.46 340.024L999.113 356.665Z" fill="#273199" />
    <path opacity="0.5" fill-rule="evenodd" clip-rule="evenodd" d="M1006.41 374.215C1006.98 374.124 1007.37 373.586 1007.28 373.014C1007.19 372.441 1006.65 372.05 1006.08 372.141C1005.5 372.231 1005.11 372.769 1005.2 373.342C1005.29 373.915 1005.83 374.306 1006.41 374.215Z" fill="#BBE9FF" />
    <path opacity="0.5" fill-rule="evenodd" clip-rule="evenodd" d="M1030.75 360.705C1031.32 360.614 1031.71 360.076 1031.62 359.503C1031.53 358.93 1030.99 358.539 1030.42 358.63C1029.85 358.721 1029.46 359.259 1029.55 359.832C1029.64 360.405 1030.18 360.795 1030.75 360.705Z" fill="#BBE9FF" />
    <path opacity="0.1" fill-rule="evenodd" clip-rule="evenodd" d="M994.292 365.845C994.292 365.845 988.665 396.292 997.359 398.522C997.359 398.522 1026.11 400.441 1024.79 394.117C999.823 391.208 994.292 365.845 994.292 365.845Z" fill="#273199" />
  </g>
  <path d="M991.422 365.455L991.808 373.229C992.258 382.292 997.861 390.296 1006.22 393.82L1013.48 396.877" stroke="url(#paint17_linear)" stroke-width="8.928" stroke-linecap="round" stroke-linejoin="round" />
  <rect x="1017.24" y="395.353" width="10.856" height="10.0665" rx="5.03324" fill="#4832A6" />
  <path fill-rule="evenodd" clip-rule="evenodd" d="M995.612 393.821C993.734 391.208 998.01 386.099 1004.62 385.876C1004.62 385.876 1024.18 391.236 1024.75 392.803C1025.32 394.371 1021.64 403.816 1017.56 405.302C1013.47 406.788 997.491 396.433 995.612 393.821Z" fill="url(#paint18_linear)" />
  <mask id="mask8" mask-type="alpha" maskUnits="userSpaceOnUse" x="995" y="385" width="30" height="21">
    <path fill-rule="evenodd" clip-rule="evenodd" d="M995.612 393.821C993.734 391.208 998.01 386.099 1004.62 385.876C1004.62 385.876 1024.18 391.236 1024.75 392.803C1025.32 394.371 1021.64 403.816 1017.56 405.302C1013.47 406.788 997.491 396.433 995.612 393.821Z" fill="white" />
  </mask>
  <g mask="url(#mask8)">
    <path opacity="0.1" fill-rule="evenodd" clip-rule="evenodd" d="M994.023 392.877C994.023 392.877 1013.95 402.933 1025.05 395.82L1021.23 409.39L998.496 406.132L994.023 392.877Z" fill="#273199" />
  </g>
  <path fill-rule="evenodd" clip-rule="evenodd" d="M997.968 332.727L995.03 321.172H994.115V336.733L997.968 332.727Z" fill="#6A5FEB" />
  <path fill-rule="evenodd" clip-rule="evenodd" d="M994.293 321.877C995.258 321.877 996.04 321.094 996.04 320.129C996.04 319.164 995.258 318.381 994.293 318.381C993.327 318.381 992.545 319.164 992.545 320.129C992.545 321.094 993.327 321.877 994.293 321.877Z" fill="#58BBF8" />
  <path fill-rule="evenodd" clip-rule="evenodd" d="M1020.41 326.387L1017.47 314.832H1016.56V330.393L1020.41 326.387Z" fill="#43A4E0" />
  <path fill-rule="evenodd" clip-rule="evenodd" d="M1016.74 315.536C1017.7 315.536 1018.48 314.754 1018.48 313.789C1018.48 312.823 1017.7 312.041 1016.74 312.041C1015.77 312.041 1014.99 312.823 1014.99 313.789C1014.99 314.754 1015.77 315.536 1016.74 315.536Z" fill="#58BBF8" />
  <path fill-rule="evenodd" clip-rule="evenodd" d="M994.688 332.422C998.12 327.094 1017.49 316.594 1024.91 327.461C1032.32 338.327 1031.96 347.682 1030.35 350.726C1028.75 353.771 1013.78 364.426 998.565 355.768C993.172 352.7 991.986 336.618 994.688 332.422Z" fill="url(#paint19_linear)" />
  <mask id="mask9" mask-type="alpha" maskUnits="userSpaceOnUse" x="993" y="322" width="39" height="38">
    <path fill-rule="evenodd" clip-rule="evenodd" d="M994.688 332.422C998.12 327.094 1017.49 316.594 1024.91 327.461C1032.32 338.327 1031.96 347.682 1030.35 350.726C1028.75 353.771 1013.78 364.426 998.565 355.768C993.172 352.7 991.986 336.618 994.688 332.422Z" fill="white" />
  </mask>
  <g mask="url(#mask9)">
    <path fill-rule="evenodd" clip-rule="evenodd" d="M1010.93 347.4C1012.04 347.4 1012.94 346.082 1012.94 344.456C1012.94 342.83 1012.04 341.512 1010.93 341.512C1009.82 341.512 1008.92 342.83 1008.92 344.456C1008.92 346.082 1009.82 347.4 1010.93 347.4Z" fill="white" />
    <path fill-rule="evenodd" clip-rule="evenodd" d="M1024.44 342.898C1025.55 342.898 1026.45 341.58 1026.45 339.954C1026.45 338.328 1025.55 337.01 1024.44 337.01C1023.33 337.01 1022.43 338.328 1022.43 339.954C1022.43 341.58 1023.33 342.898 1024.44 342.898Z" fill="white" />
    <path opacity="0.2" fill-rule="evenodd" clip-rule="evenodd" d="M998.904 326.044C998.904 326.044 1006.46 329.726 1007.7 333.001C1008.94 336.277 1015.61 333.001 1015.61 333.001C1015.61 333.001 1018.96 331.827 1018.96 330.313C1018.96 329.702 1019.29 327.573 1017.12 325.547C1015.77 324.285 1010.2 321.767 1010.2 321.767L998.904 326.044Z" fill="#525DD0" />
  </g>
  <path fill-rule="evenodd" clip-rule="evenodd" d="M1031.9 341.518C1034.26 349.745 1031.44 350.81 1030.31 352.948C1028.71 355.993 1014.15 365.922 998.938 357.265C996.214 355.715 994.564 352.766 993.945 346.473C993.945 346.473 1004.46 352.829 1013.48 351.976C1022.49 351.123 1031.9 341.518 1031.9 341.518Z" fill="url(#paint20_linear)" />
  <path opacity="0.5" fill-rule="evenodd" clip-rule="evenodd" d="M1010.59 333.175C1011.06 333.175 1011.43 332.799 1011.43 332.334C1011.43 331.869 1011.06 331.493 1010.59 331.493C1010.13 331.493 1009.75 331.869 1009.75 332.334C1009.75 332.799 1010.13 333.175 1010.59 333.175Z" fill="white" />
  <path opacity="0.5" fill-rule="evenodd" clip-rule="evenodd" d="M1016.95 330.557C1017.42 330.557 1017.79 330.18 1017.79 329.715C1017.79 329.251 1017.42 328.874 1016.95 328.874C1016.49 328.874 1016.11 329.251 1016.11 329.715C1016.11 330.18 1016.49 330.557 1016.95 330.557Z" fill="white" />
  <path fill-rule="evenodd" clip-rule="evenodd" d="M1031 396.116C1057.19 396.116 1078.43 374.88 1078.43 348.685C1078.43 322.49 1057.19 301.255 1031 301.255C1004.8 301.255 983.566 322.49 983.566 348.685C983.566 374.88 1004.8 396.116 1031 396.116Z" fill="url(#paint21_linear)" />
  <path opacity="0.4" d="M1070.28 351.524L1070.15 354.021L1072.64 354.157L1072.78 351.661L1070.28 351.524ZM1070.25 345.631L1072.75 345.464L1072.58 342.969L1070.09 343.136L1070.25 345.631ZM1069.71 351.493L1067.21 351.357L1067.08 353.853L1069.57 353.989L1069.71 351.493ZM1069.68 345.669L1069.51 343.175L1067.02 343.341L1067.19 345.836L1069.68 345.669ZM1067.14 332.266L1068.11 334.567L1070.42 333.59L1069.44 331.289L1067.14 332.266ZM1046.31 311.499L1047.35 309.224L1045.07 308.187L1044.04 310.462L1046.31 311.499ZM1066.61 332.492L1064.31 333.469L1065.28 335.77L1067.58 334.793L1066.61 332.492ZM1046.07 312.023L1043.8 310.986L1042.76 313.261L1045.04 314.298L1046.07 312.023ZM1072.78 351.661C1072.9 349.534 1072.88 347.468 1072.75 345.464L1067.76 345.797C1067.88 347.594 1067.89 349.458 1067.79 351.388L1072.78 351.661ZM1069.57 353.989L1070.15 354.021L1070.42 349.028L1069.84 348.997L1069.57 353.989ZM1067.19 345.836C1067.3 347.608 1067.32 349.449 1067.21 351.357L1072.2 351.629C1072.32 349.526 1072.31 347.483 1072.17 345.502L1067.19 345.836ZM1070.09 343.136L1069.51 343.175L1069.85 348.163L1070.42 348.125L1070.09 343.136ZM1069.44 331.289C1065.09 321.047 1056.99 313.617 1047.35 309.224L1045.28 313.774C1053.94 317.724 1061.04 324.308 1064.84 333.244L1069.44 331.289ZM1067.58 334.793L1068.11 334.567L1066.16 329.965L1065.63 330.191L1067.58 334.793ZM1045.04 314.298C1053.59 318.197 1060.57 324.684 1064.31 333.469L1068.91 331.514C1064.62 321.423 1056.64 314.091 1047.11 309.748L1045.04 314.298ZM1044.04 310.462L1043.8 310.986L1048.35 313.06L1048.59 312.535L1044.04 310.462Z" fill="white" />
  <path fill-rule="evenodd" clip-rule="evenodd" d="M995.743 393.561C993.865 390.948 998.141 385.839 1004.75 385.617C1004.75 385.617 1024.31 390.976 1024.88 392.543C1025.45 394.111 1021.77 403.556 1017.69 405.042C1013.61 406.528 997.621 396.174 995.743 393.561Z" fill="url(#paint22_linear)" />
  <mask id="mask10" mask-type="alpha" maskUnits="userSpaceOnUse" x="995" y="385" width="30" height="21">
    <path fill-rule="evenodd" clip-rule="evenodd" d="M995.743 393.561C993.865 390.948 998.141 385.839 1004.75 385.617C1004.75 385.617 1024.31 390.976 1024.88 392.543C1025.45 394.111 1021.77 403.556 1017.69 405.042C1013.61 406.528 997.621 396.174 995.743 393.561Z" fill="white" />
  </mask>
  <g mask="url(#mask10)">
    <path opacity="0.1" fill-rule="evenodd" clip-rule="evenodd" d="M994.154 392.617C994.154 392.617 1014.08 402.673 1025.19 395.56L1021.36 409.13L998.627 405.872L994.154 392.617Z" fill="#273199" />
  </g>
  <path fill-rule="evenodd" clip-rule="evenodd" d="M1138.51 554.968C1138.51 554.968 1144.88 586.365 1158.4 586.365C1162.25 586.365 1164.85 606.182 1169.48 608.002C1181.09 612.567 1194.15 599.59 1201.01 599.59C1210.6 599.59 1211.4 584 1215.84 584C1220.28 584 1238.31 594.454 1243.56 599.59C1248.8 604.727 1259.85 589.137 1264.34 584C1268.83 578.863 1276.89 552.481 1276.89 552.481L1138.51 554.968Z" fill="url(#paint23_linear)" />
  <mask id="mask11" mask-type="alpha" maskUnits="userSpaceOnUse" x="1138" y="552" width="139" height="57">
    <path fill-rule="evenodd" clip-rule="evenodd" d="M1138.51 554.968C1138.51 554.968 1144.88 586.365 1158.4 586.365C1162.25 586.365 1164.85 606.182 1169.48 608.002C1181.09 612.567 1194.15 599.59 1201.01 599.59C1210.6 599.59 1211.4 584 1215.84 584C1220.28 584 1238.31 594.454 1243.56 599.59C1248.8 604.727 1259.85 589.137 1264.34 584C1268.83 578.863 1276.89 552.481 1276.89 552.481L1138.51 554.968Z" fill="white" />
  </mask>
  <g mask="url(#mask11)">
    <path opacity="0.2" fill-rule="evenodd" clip-rule="evenodd" d="M1158.2 553.787C1158.2 553.787 1158.46 577.45 1173.78 580.732C1189.11 584.014 1187.3 597.758 1196.25 594.506C1205.21 591.254 1205.66 565.067 1225.48 569.73C1245.3 574.394 1245.87 602.105 1274.61 549.241C1303.35 496.377 1158.2 553.787 1158.2 553.787Z" fill="#482EB0" />
  </g>
  <path fill-rule="evenodd" clip-rule="evenodd" d="M1207.35 566.633C1245.75 566.633 1276.89 560.297 1276.89 552.481C1276.89 544.666 1245.75 538.33 1207.35 538.33C1168.94 538.33 1137.8 544.666 1137.8 552.481C1137.8 560.297 1168.94 566.633 1207.35 566.633Z" fill="url(#paint24_linear)" />
  <path fill-rule="evenodd" clip-rule="evenodd" d="M1175.06 555.532L1176.41 490.999L1191.09 481.05L1204.94 490.999L1209.91 555.532C1209.91 555.532 1200.78 558.333 1192.49 558.333C1184.2 558.333 1175.06 555.532 1175.06 555.532Z" fill="url(#paint25_linear)" />
  <rect x="1182.1" y="496.377" width="5.19546" height="5.84489" fill="#FFAD9D" />
  <rect opacity="0.2" x="1192.49" y="510.405" width="5.19546" height="2.92245" fill="#FFAD9D" />
  <rect x="1182.1" y="538.65" width="5.19546" height="4.22131" fill="#FFAD9D" />
  <rect x="1226.25" y="520.536" width="2.59773" height="33.7705" fill="#5B36AE" />
  <path fill-rule="evenodd" clip-rule="evenodd" d="M1227.55 522.092C1228.85 522.092 1229.89 521.045 1229.89 519.754C1229.89 518.463 1228.85 517.416 1227.55 517.416C1226.26 517.416 1225.22 518.463 1225.22 519.754C1225.22 521.045 1226.26 522.092 1227.55 522.092Z" fill="#5B36AE" />
  <path fill-rule="evenodd" clip-rule="evenodd" d="M1207.42 532.61H1249.09L1259.48 544.45L1249.09 556.29H1207.42L1197.03 544.45L1207.42 532.61Z" fill="url(#paint26_linear)" />
  <path fill-rule="evenodd" clip-rule="evenodd" d="M1259.48 544.45L1249.09 556.29C1249.09 556.29 1234.66 557.938 1227.55 557.938C1220.45 557.938 1207.42 556.29 1207.42 556.29L1197.03 544.45H1259.48Z" fill="url(#paint27_linear)" />
  <path fill-rule="evenodd" clip-rule="evenodd" d="M1212.74 541.199C1213.96 541.199 1214.95 540.207 1214.95 538.983C1214.95 537.759 1213.96 536.767 1212.74 536.767C1211.51 536.767 1210.52 537.759 1210.52 538.983C1210.52 540.207 1211.51 541.199 1212.74 541.199Z" fill="#FFAD9D" />
  <path opacity="0.2" fill-rule="evenodd" clip-rule="evenodd" d="M1228.32 541.199C1229.55 541.199 1230.54 540.207 1230.54 538.983C1230.54 537.759 1229.55 536.767 1228.32 536.767C1227.1 536.767 1226.11 537.759 1226.11 538.983C1226.11 540.207 1227.1 541.199 1228.32 541.199Z" fill="#FFAD9D" />
  <path opacity="0.2" fill-rule="evenodd" clip-rule="evenodd" d="M1243.91 541.199C1245.13 541.199 1246.12 540.207 1246.12 538.983C1246.12 537.759 1245.13 536.767 1243.91 536.767C1242.68 536.767 1241.69 537.759 1241.69 538.983C1241.69 540.207 1242.68 541.199 1243.91 541.199Z" fill="#FFAD9D" />
  <path d="M1195.37 544.45C1195.37 544.45 1213.68 546.383 1227.55 546.383C1241.43 546.383 1261.71 544.45 1261.71 544.45" stroke="#A051A3" stroke-width="6" stroke-linecap="round" stroke-linejoin="round" />
  <path fill-rule="evenodd" clip-rule="evenodd" d="M838.934 152.756C838.934 152.756 845.074 183.015 858.104 183.015C871.133 183.015 877.665 201.665 886.906 201.665C896.147 201.665 909.179 180.735 913.459 180.735C917.738 180.735 936.191 170.834 941.248 175.785C946.306 180.735 955.875 185.686 960.2 180.735C964.525 175.785 972.297 150.359 972.297 150.359L838.934 152.756Z" fill="url(#paint28_linear)" />
  <mask id="mask12" mask-type="alpha" maskUnits="userSpaceOnUse" x="838" y="150" width="135" height="52">
    <path fill-rule="evenodd" clip-rule="evenodd" d="M838.934 152.756C838.934 152.756 845.074 183.015 858.104 183.015C871.133 183.015 877.665 201.665 886.906 201.665C896.147 201.665 909.179 180.735 913.459 180.735C917.738 180.735 936.191 170.834 941.248 175.785C946.306 180.735 955.875 185.686 960.2 180.735C964.525 175.785 972.297 150.359 972.297 150.359L838.934 152.756Z" fill="white" />
  </mask>
  <g mask="url(#mask12)">
    <path opacity="0.2" fill-rule="evenodd" clip-rule="evenodd" d="M861.134 155.094C861.134 155.094 860.505 183.961 880.845 186.006C901.186 188.051 902.279 203.518 911.693 193.99C921.107 184.462 937.826 154.604 948.301 159.994C958.776 165.385 976.638 163.219 976.638 163.219L971.67 143.345L863 155.719L861.134 155.094Z" fill="#1A5295" />
  </g>
  <path fill-rule="evenodd" clip-rule="evenodd" d="M905.276 163.997C942.291 163.997 972.298 157.891 972.298 150.359C972.298 142.827 942.291 136.721 905.276 136.721C868.261 136.721 838.255 142.827 838.255 150.359C838.255 157.891 868.261 163.997 905.276 163.997Z" fill="url(#paint29_linear)" />
  <rect x="901.472" y="83.338" width="2.17096" height="15.1967" rx="1.08548" fill="#7D94FF" />
  <path fill-rule="evenodd" clip-rule="evenodd" d="M902.557 88.6088C904.658 88.6088 906.362 86.9055 906.362 84.8044C906.362 82.7033 904.658 81 902.557 81C900.456 81 898.753 82.7033 898.753 84.8044C898.753 86.9055 900.456 88.6088 902.557 88.6088Z" fill="#83AFFF" />
  <path fill-rule="evenodd" clip-rule="evenodd" d="M960.336 149.785C960.336 119.657 935.912 95.2329 905.784 95.2329C875.655 95.2329 851.231 119.657 851.231 149.785C851.231 149.785 875.734 153.706 905.784 153.706C935.833 153.706 960.336 149.785 960.336 149.785Z" fill="url(#paint30_linear)" />
  <mask id="mask13" mask-type="alpha" maskUnits="userSpaceOnUse" x="851" y="95" width="110" height="59">
    <path fill-rule="evenodd" clip-rule="evenodd" d="M960.336 149.785C960.336 119.657 935.912 95.2329 905.784 95.2329C875.655 95.2329 851.231 119.657 851.231 149.785C851.231 149.785 875.734 153.706 905.784 153.706C935.833 153.706 960.336 149.785 960.336 149.785Z" fill="white" />
  </mask>
  <g mask="url(#mask13)">
    <path opacity="0.1" fill-rule="evenodd" clip-rule="evenodd" d="M921.577 208.974C952.101 208.974 976.845 184.23 976.845 153.706C976.845 123.183 952.101 98.4386 921.577 98.4386C891.054 98.4386 866.31 123.183 866.31 153.706C866.31 184.23 891.054 208.974 921.577 208.974Z" fill="white" />
    <path fill-rule="evenodd" clip-rule="evenodd" d="M909.172 149.303C909.172 137.069 919.09 127.151 931.324 127.151C943.558 127.151 953.476 137.069 953.476 149.303V156.765H909.172V149.303Z" fill="#6F9CFF" />
    <path fill-rule="evenodd" clip-rule="evenodd" d="M928.655 139.562C928.655 132.707 934.212 127.151 941.066 127.151C947.92 127.151 953.477 132.707 953.477 139.562V156.765H928.655V139.562Z" fill="#DEF3FF" />
    <path d="M935.213 141.375C935.213 137.497 938.357 134.353 942.235 134.353C946.113 134.353 949.257 137.497 949.257 141.375V157.603H935.213V141.375Z" fill="url(#paint31_linear)" />
  </g>
  <path fill-rule="evenodd" clip-rule="evenodd" d="M1152.62 186.948C1169.87 186.948 1183.84 172.971 1183.84 155.73C1183.84 138.489 1169.87 124.512 1152.62 124.512C1135.38 124.512 1121.41 138.489 1121.41 155.73C1121.41 172.971 1135.38 186.948 1152.62 186.948Z" fill="url(#paint32_linear)" />
  <path opacity="0.4" fill-rule="evenodd" clip-rule="evenodd" d="M1146.35 151.528C1149.22 151.528 1151.54 149.202 1151.54 146.333C1151.54 143.464 1149.22 141.137 1146.35 141.137C1143.48 141.137 1141.15 143.464 1141.15 146.333C1141.15 149.202 1143.48 151.528 1146.35 151.528Z" fill="#8E62FF" />
  <path opacity="0.4" fill-rule="evenodd" clip-rule="evenodd" d="M1143.75 176.271C1145.18 176.271 1146.35 175.108 1146.35 173.673C1146.35 172.239 1145.18 171.076 1143.75 171.076C1142.31 171.076 1141.15 172.239 1141.15 173.673C1141.15 175.108 1142.31 176.271 1143.75 176.271Z" fill="#8E62FF" />
  <path opacity="0.4" fill-rule="evenodd" clip-rule="evenodd" d="M1164.53 165.88C1165.96 165.88 1167.13 164.717 1167.13 163.283C1167.13 161.848 1165.96 160.685 1164.53 160.685C1163.09 160.685 1161.93 161.848 1161.93 163.283C1161.93 164.717 1163.09 165.88 1164.53 165.88Z" fill="#8E62FF" />
  <path fill-rule="evenodd" clip-rule="evenodd" d="M1296.17 374.517C1322.03 374.517 1343 353.552 1343 327.69C1343 301.828 1322.03 280.863 1296.17 280.863C1270.31 280.863 1249.35 301.828 1249.35 327.69C1249.35 353.552 1270.31 374.517 1296.17 374.517Z" fill="url(#paint33_linear)" />
  <path opacity="0.2" fill-rule="evenodd" clip-rule="evenodd" d="M1286.75 321.387C1291.06 321.387 1294.55 317.898 1294.55 313.594C1294.55 309.29 1291.06 305.801 1286.75 305.801C1282.45 305.801 1278.96 309.29 1278.96 313.594C1278.96 317.898 1282.45 321.387 1286.75 321.387Z" fill="#8E62FF" />
  <path opacity="0.2" fill-rule="evenodd" clip-rule="evenodd" d="M1282.86 358.502C1285.01 358.502 1286.75 356.757 1286.75 354.605C1286.75 352.453 1285.01 350.708 1282.86 350.708C1280.7 350.708 1278.96 352.453 1278.96 354.605C1278.96 356.757 1280.7 358.502 1282.86 358.502Z" fill="#8E62FF" />
  <path opacity="0.2" fill-rule="evenodd" clip-rule="evenodd" d="M1314.03 342.915C1316.18 342.915 1317.93 341.171 1317.93 339.019C1317.93 336.867 1316.18 335.122 1314.03 335.122C1311.88 335.122 1310.13 336.867 1310.13 339.019C1310.13 341.171 1311.88 342.915 1314.03 342.915Z" fill="#8E62FF" />
  <path fill-rule="evenodd" clip-rule="evenodd" d="M1340.18 332.884C1331.03 341.109 1309.39 351.471 1283.12 359.501C1246.61 370.665 1214.98 373.093 1212.49 364.926C1212.43 364.749 1212.44 364.558 1212.51 364.352C1212.5 364.327 1212.49 364.302 1212.49 364.276C1210.57 358.003 1226.39 347.304 1250.38 337.62L1251.24 341.119C1245.76 344.555 1238.13 347.917 1240.77 353.093C1244.29 359.99 1269.79 357.974 1300.84 348.48C1316.76 343.614 1330.68 337.74 1340.18 332.235C1339.45 332.894 1338.63 333.568 1337.74 334.252C1338.58 333.794 1339.4 333.338 1340.18 332.884Z" fill="url(#paint34_linear)" />
  <defs>
    <linearGradient id="paint0_linear" x1="657.589" y1="1295.47" x2="1269.16" y2="318.099" gradientUnits="userSpaceOnUse">
      <stop stop-color="#FFC5A4" />
      <stop offset="0.376046" stop-color="#FA6CBE" />
      <stop offset="1" stop-color="#8E62FF" />
    </linearGradient>
    <linearGradient id="paint1_linear" x1="657.589" y1="1291.04" x2="1266.15" y2="315.135" gradientUnits="userSpaceOnUse">
      <stop stop-color="#7F69B6" />
      <stop offset="0.376046" stop-color="#4C406A" />
      <stop offset="1" stop-color="#7451CD" />
    </linearGradient>
    <linearGradient id="paint2_linear" x1="639.274" y1="659.903" x2="854.885" y2="725.356" gradientUnits="userSpaceOnUse">
      <stop stop-color="#FF7697" />
      <stop offset="1" stop-color="#FFCC84" />
    </linearGradient>
    <linearGradient id="paint3_linear" x1="765.661" y1="435.554" x2="772.59" y2="534.716" gradientUnits="userSpaceOnUse">
      <stop stop-color="#D992EC" />
      <stop offset="1" stop-color="white" />
    </linearGradient>
    <linearGradient id="paint4_linear" x1="1063.68" y1="444.621" x2="1069.88" y2="369.3" gradientUnits="userSpaceOnUse">
      <stop stop-color="#FFA492" />
      <stop offset="0.231733" stop-color="#CA3891" />
      <stop offset="1" stop-color="#3E13AF" />
    </linearGradient>
    <linearGradient id="paint5_linear" x1="963.291" y1="452.226" x2="971.02" y2="405.41" gradientUnits="userSpaceOnUse">
      <stop stop-color="#C43793" />
      <stop offset="1" stop-color="#BA3495" />
    </linearGradient>
    <linearGradient id="paint6_linear" x1="970.486" y1="466.712" x2="978.514" y2="417.114" gradientUnits="userSpaceOnUse">
      <stop stop-color="#FFA492" />
      <stop offset="0.348542" stop-color="#CA3891" />
      <stop offset="1" stop-color="#3E13AF" />
    </linearGradient>
    <linearGradient id="paint7_linear" x1="714.73" y1="347.703" x2="845.456" y2="507.391" gradientUnits="userSpaceOnUse">
      <stop stop-color="white" stop-opacity="0.01" />
      <stop offset="0.65492" stop-color="white" stop-opacity="0.15975" />
      <stop offset="1" stop-color="white" />
    </linearGradient>
    <linearGradient id="paint8_linear" x1="871.039" y1="222.858" x2="1001.76" y2="382.546" gradientUnits="userSpaceOnUse">
      <stop stop-color="white" stop-opacity="0.01" />
      <stop offset="0.65492" stop-color="white" stop-opacity="0.15975" />
      <stop offset="1" stop-color="white" />
    </linearGradient>
    <linearGradient id="paint9_linear" x1="1122.63" y1="338.5" x2="1129.15" y2="295.174" gradientUnits="userSpaceOnUse">
      <stop stop-color="#FFA492" />
      <stop offset="0.231733" stop-color="#CA3891" />
      <stop offset="1" stop-color="#3E13AF" />
    </linearGradient>
    <linearGradient id="paint10_linear" x1="1079.76" y1="303.313" x2="1068.77" y2="331.486" gradientUnits="userSpaceOnUse">
      <stop stop-color="#621CA7" />
      <stop offset="1" stop-color="#982B9C" />
    </linearGradient>
    <linearGradient id="paint11_linear" x1="1074.1" y1="449.556" x2="1100.13" y2="266.895" gradientUnits="userSpaceOnUse">
      <stop stop-color="#FFA492" />
      <stop offset="0.231733" stop-color="#CA3891" />
      <stop offset="1" stop-color="#3E13AF" />
    </linearGradient>
    <linearGradient id="paint12_linear" x1="1137.69" y1="348.345" x2="1094.78" y2="348.345" gradientUnits="userSpaceOnUse">
      <stop stop-color="#B1FFC9" />
      <stop offset="1" stop-color="#B3E8FF" stop-opacity="0.330857" />
    </linearGradient>
    <linearGradient id="paint13_linear" x1="1068.89" y1="426.66" x2="1082.83" y2="379.49" gradientUnits="userSpaceOnUse">
      <stop stop-color="#CA3891" />
      <stop offset="1" stop-color="#3E13AF" />
    </linearGradient>
    <linearGradient id="paint14_linear" x1="1044.49" y1="352.351" x2="1039.94" y2="352.497" gradientUnits="userSpaceOnUse">
      <stop stop-color="#7C5ED1" />
      <stop offset="1" stop-color="#4630A4" />
    </linearGradient>
    <linearGradient id="paint15_linear" x1="1036.4" y1="364.139" x2="1059.55" y2="364.761" gradientUnits="userSpaceOnUse">
      <stop stop-color="#8ACFFF" />
      <stop offset="1" stop-color="#7775FF" />
    </linearGradient>
    <linearGradient id="paint16_linear" x1="1018.29" y1="350.205" x2="996.042" y2="383.338" gradientUnits="userSpaceOnUse">
      <stop stop-color="#5CBCFF" />
      <stop offset="1" stop-color="#8C5DFF" />
    </linearGradient>
    <linearGradient id="paint17_linear" x1="1001.91" y1="359.784" x2="990.83" y2="360.544" gradientUnits="userSpaceOnUse">
      <stop stop-color="#7C5ED1" />
      <stop offset="1" stop-color="#4630A4" />
    </linearGradient>
    <linearGradient id="paint18_linear" x1="995.031" y1="379.371" x2="994.394" y2="404.333" gradientUnits="userSpaceOnUse">
      <stop stop-color="#8ACFFF" />
      <stop offset="1" stop-color="#7775FF" />
    </linearGradient>
    <linearGradient id="paint19_linear" x1="1014.93" y1="320.659" x2="991.422" y2="340.767" gradientUnits="userSpaceOnUse">
      <stop stop-color="#5CBCFF" />
      <stop offset="1" stop-color="#8C5DFF" />
    </linearGradient>
    <linearGradient id="paint20_linear" x1="1000.21" y1="334.299" x2="995.345" y2="355.281" gradientUnits="userSpaceOnUse">
      <stop stop-color="#8ACFFF" />
      <stop offset="1" stop-color="#7775FF" />
    </linearGradient>
    <linearGradient id="paint21_linear" x1="1033.13" y1="429.344" x2="1099.58" y2="360.186" gradientUnits="userSpaceOnUse">
      <stop stop-color="#FCD694" stop-opacity="0.457086" />
      <stop offset="1" stop-color="white" stop-opacity="0.11828" />
    </linearGradient>
    <linearGradient id="paint22_linear" x1="995.162" y1="379.112" x2="994.525" y2="404.073" gradientUnits="userSpaceOnUse">
      <stop stop-color="#8ACFFF" />
      <stop offset="1" stop-color="#7775FF" />
    </linearGradient>
    <linearGradient id="paint23_linear" x1="1102.56" y1="497.057" x2="1093.41" y2="601.991" gradientUnits="userSpaceOnUse">
      <stop stop-color="#5634AF" />
      <stop offset="1" stop-color="#A954A2" stop-opacity="0.403409" />
    </linearGradient>
    <linearGradient id="paint24_linear" x1="1001.53" y1="486.97" x2="994.568" y2="602.999" gradientUnits="userSpaceOnUse">
      <stop stop-color="#2A23B5" />
      <stop offset="1" stop-color="#FF7595" />
    </linearGradient>
    <linearGradient id="paint25_linear" x1="1178.42" y1="420.652" x2="1112.53" y2="446.075" gradientUnits="userSpaceOnUse">
      <stop stop-color="#2A23B5" />
      <stop offset="1" stop-color="#FF7595" />
    </linearGradient>
    <linearGradient id="paint26_linear" x1="1203.05" y1="514.104" x2="1180.79" y2="564.346" gradientUnits="userSpaceOnUse">
      <stop stop-color="#2A23B5" />
      <stop offset="1" stop-color="#FF7595" />
    </linearGradient>
    <linearGradient id="paint27_linear" x1="1203.05" y1="533.909" x2="1194.93" y2="566.098" gradientUnits="userSpaceOnUse">
      <stop stop-color="#2A23B5" />
      <stop offset="1" stop-color="#FF7595" />
    </linearGradient>
    <linearGradient id="paint28_linear" x1="804.283" y1="100.025" x2="796.446" y2="195.403" gradientUnits="userSpaceOnUse">
      <stop stop-color="#2E70B0" />
      <stop offset="1" stop-color="#14498D" stop-opacity="0.01" />
    </linearGradient>
    <linearGradient id="paint29_linear" x1="931.694" y1="120.395" x2="916.434" y2="183.041" gradientUnits="userSpaceOnUse">
      <stop stop-color="#69C8FF" />
      <stop offset="1" stop-color="#14498D" />
    </linearGradient>
    <linearGradient id="paint30_linear" x1="897.678" y1="92.6986" x2="883.387" y2="155.772" gradientUnits="userSpaceOnUse">
      <stop stop-color="#6BE5FF" />
      <stop offset="1" stop-color="#5C79FF" />
    </linearGradient>
    <linearGradient id="paint31_linear" x1="944.73" y1="151.351" x2="944.73" y2="134.353" gradientUnits="userSpaceOnUse">
      <stop stop-color="#74C3FF" />
      <stop offset="1" stop-color="#5C79FF" />
    </linearGradient>
    <linearGradient id="paint32_linear" x1="1086.2" y1="199.813" x2="1174.37" y2="218.767" gradientUnits="userSpaceOnUse">
      <stop stop-color="#8E62FF" />
      <stop offset="1" stop-color="#E388FF" />
    </linearGradient>
    <linearGradient id="paint33_linear" x1="1234.08" y1="338.317" x2="1298.54" y2="401.37" gradientUnits="userSpaceOnUse">
      <stop stop-color="#70D69B" />
      <stop offset="1" stop-color="#5DA4FF" />
    </linearGradient>
    <linearGradient id="paint34_linear" x1="1185.21" y1="333.249" x2="1185.81" y2="386.763" gradientUnits="userSpaceOnUse">
      <stop stop-color="white" stop-opacity="0.147782" />
      <stop offset="1" stop-color="white" />
    </linearGradient>
  </defs>
</svg>